<?xml version="1.0" encoding="utf-8"?>
<!-- Generator: Adobe Illustrator 18.1.1, SVG Export Plug-In . SVG Version: 6.00 Build 0)  -->
<svg version="1.1" id="Layer_1" xmlns="http://www.w3.org/2000/svg" xmlns:xlink="http://www.w3.org/1999/xlink" x="0px" y="0px"
	 viewBox="0 0 42.6 46" style="enable-background:new 0 0 42.6 46;" xml:space="preserve">
<style type="text/css">
	.st0{fill:#E6CC1D;stroke:#000000;stroke-width:0.75;stroke-miterlimit:10;}
	.st1{fill:#B9A617;stroke:#000000;stroke-width:0.75;stroke-miterlimit:10;}
	.st2{fill:#463008;stroke:#000000;stroke-width:0.75;stroke-linecap:round;stroke-miterlimit:10;}
	.st3{fill:#463008;}
</style>
<g>
	<g>
		<path class="st0" d="M41.7,4.5c0,0,0,1.6-2.1,0.9c-2.1-0.7-5.4,1.9-5.4,1.9s-1.2,2.2-3.2,3.4S15.1,27.6,13.3,35.2
			s-5.2,8.9-6.1,9.6c-0.8,0.6-2.3,0.7-2.3,0.7l-2.3-2.5c0,0-7.5-8.3,4.8-27.5c0,0,14.3-19.5,24.7-13.6c0,0,1.2,0.3,2.2,0.2
			S41,0.5,41,0.5L41.7,4.5z"/>
		<path class="st1" d="M41.2,1.7c0,0,3.1,4.7-1.6,3.8c-3.7-0.8-5.2,0-5.7,0.3c0,0-5.3,2.6-10.1,5.4c0,0-15.7,16.2-16.8,29.4
			c0,0-1.9,0.3-2,0.9c0,0-1.9-0.4-2.4,1.7c0,0-6-6.7,1.7-22.1c0,0-3.4,10.5-1.9,13.8c0,0,1.5,0.6,2.6,2c0,0,11.2-21.7,16.7-26.1
			c0,0,9.5-6.1,11.2-6.3L41.2,1.7z"/>
		<path class="st2" d="M7.2,44.8c0,0,0-2.1-0.6-2.3c0,0,0.6-1.5,0.4-2c0,0-1.3-0.2-2,0.4c-0.7,0.6-0.1,0.2-0.1,0.2s-2.2,0.1-2.2,2
			l2.1,2.2C4.8,45.4,6,46,7.2,44.8z"/>
	</g>
	<path class="st3" d="M41,0.5l0.2,1.2c0,0,1.1,1.9,1,2.9c0,0,0-1.5-0.4-2.6L41,0.5z"/>
</g>
<g>
</g>
<g>
</g>
<g>
</g>
<g>
</g>
<g>
</g>
<g>
</g>
</svg>
